#!OML:ASF F:\VICON\USERDATA\INSTALL\rory3\rory3.ASF
:FULLY-SPECIFIED
:DEGREES
1270
root 0.98312 15.0249 2.69281 19.7355 -21.1671 0.278662
lowerback -2.94961 -2.6346 4.41022
upperback -6.79192 -3.51974 1.16582
thorax -5.5961 -1.97839 -1.16962
lowerneck -10.7682 -8.42092 -9.77134
upperneck 9.39334 -10.1239 2.72385
head 5.21651 -5.14055 1.57573
rclavicle 4.0229e-014 3.29983e-014
rhumerus -31.9571 1.8214 -79.5236
rradius 33.7137
rwrist 15.7975
rhand -26.1987 -53.2486
rfingers 7.12502
rthumb 0.353786 -83.2281
lclavicle 4.0229e-014 3.29983e-014
lhumerus -27.7647 -12.5821 67.5801
lradius 36.3685
lwrist -1.96274
lhand -38.1749 -44.6288
lfingers 7.12502
lthumb -11.208 -14.9482
rfemur -58.8323 6.34016 9.63403
rtibia 75.0033
rfoot -27.3992 -17.8057
rtoes -25.9045
lfemur -46.6538 17.342 -13.8403
ltibia 72.4267
lfoot -29.0303 12.3187
ltoes -31.9144
1271
root 0.953049 14.8601 2.69746 18.9507 -21.7219 1.01746
lowerback -2.89122 -2.52088 2.88294
upperback -6.46999 -3.37706 1.0772
thorax -5.1805 -1.8215 -0.430764
lowerneck -10.9143 -8.5215 -9.52728
upperneck 9.27018 -10.2342 2.3436
head 5.17524 -5.20657 1.40878
rclavicle -2.87492e-014 9.14409e-015
rhumerus -32.6378 -0.400054 -78.4297
rradius 33.1459
rwrist 14.768
rhand -27.7271 -51.8912
rfingers 7.12502
rthumb -1.12232 -81.868
lclavicle -2.87492e-014 9.14409e-015
lhumerus -26.7764 -10.6272 67.3081
lradius 37.7055
lwrist -1.89799
lhand -37.7326 -43.9796
lfingers 7.12502
lthumb -10.7814 -14.2763
rfemur -59.7522 7.62491 8.65679
rtibia 77.0188
rfoot -28.0699 -18.4468
rtoes -24.544
lfemur -46.7445 18.1078 -14.5389
ltibia 73.7631
lfoot -30.0669 12.9055
ltoes -29.5119
1272
root 0.950895 14.7448 2.691 18.4291 -20.6403 1.13951
lowerback -2.32673 -2.7353 2.71989
upperback -6.42479 -3.63824 1.18535
thorax -5.44351 -1.93975 -0.19355
lowerneck -11.4121 -8.78041 -9.20068
upperneck 9.69801 -10.4973 1.60419
head 5.34838 -5.37227 1.0774
rclavicle 1.02374e-014 1.74931e-014
rhumerus -33.757 -2.53966 -77.1519
rradius 32.7952
rwrist 13.9598
rhand -25.9046 -55.6181
rfingers 7.12502
rthumb 0.637859 -85.5969
lclavicle 1.02374e-014 1.74931e-014
lhumerus -26.1701 -9.19224 67.5173
lradius 39.2981
lwrist -0.836649
lhand -37.59 -43.7933
lfingers 7.12502
lthumb -10.6438 -14.0829
rfemur -59.6604 7.38305 8.80775
rtibia 78.4591
rfoot -28.819 -19.3628
rtoes -23.8276
lfemur -47.0159 17.5961 -14.3232
ltibia 74.9228
lfoot -31.0152 12.8223
ltoes -27.7763
1273
root 0.948082 14.6597 2.67544 18.1565 -19.8038 1.21956
lowerback -1.70829 -2.83907 2.39465
upperback -6.63293 -3.74945 1.35789
thorax -5.98597 -1.97632 0.212436
lowerneck -10.6213 -8.99168 -9.7125
upperneck 9.44946 -10.8055 1.78287
head 5.19553 -5.53313 1.21724
rclavicle 1.28216e-014 7.55382e-015
rhumerus -35.2271 -4.29816 -75.7977
rradius 32.5943
rwrist 13.3409
rhand -24.9147 -58.1222
rfingers 7.12502
rthumb 1.59395 -88.096
lclavicle 1.28216e-014 7.55382e-015
lhumerus -25.9862 -7.95334 68.1079
lradius 41.0109
lwrist 0.635747
lhand -37.6432 -44.2489
lfingers 7.12502
lthumb -10.6951 -14.5411
rfemur -59.7526 7.32512 8.92154
rtibia 79.5071
rfoot -29.1614 -20.3751
rtoes -23.6386
lfemur -47.4352 17.3395 -14.147
ltibia 75.7659
lfoot -31.6371 12.444
ltoes -27.3317
1274
root 0.943533 14.6141 2.66927 18.1746 -19.1608 0.801257
lowerback -1.45086 -2.85875 2.48356
upperback -6.72622 -3.74968 1.64311
thorax -6.22002 -1.97318 0.477973
lowerneck -10.0347 -9.09653 -10.2496
upperneck 9.12814 -10.9754 2.17956
head 5.06117 -5.61076 1.43387
rclavicle -1.90336e-014 -1.07344e-014
rhumerus -36.414 -5.84141 -74.6025
rradius 32.2739
rwrist 12.8182
rhand -24.6774 -60.8832
rfingers 7.12502
rthumb 1.82313 90.8552
lclavicle -1.90336e-014 -1.07344e-014
lhumerus -25.7875 -6.58241 68.7452
lradius 42.8013
lwrist 2.19092
lhand -37.6868 -44.7556
lfingers 7.12502
lthumb -10.7371 -15.05
rfemur -59.7241 7.6283 9.47415
rtibia 80.0895
rfoot -29.3855 -21.3186
rtoes -23.3547
lfemur -47.824 17.4049 -13.4988
ltibia 76.3795
lfoot -32.1471 11.7465
ltoes -26.1335
1275
root 0.942419 14.601 2.69045 18.2667 -18.7191 0.579269
lowerback -1.82882 -2.8822 2.63945
upperback -6.6099 -3.78855 1.73944
thorax -5.88469 -1.99637 0.46526
lowerneck -10.2018 -9.16496 -10.3067
upperneck 8.99636 -11.0648 2.41283
head 5.06874 -5.63796 1.50042
rclavicle -1.63997e-015 -1.39149e-014
rhumerus -37.2519 -7.06381 -73.8121
rradius 31.8947
rwrist 12.3609
rhand -24.7533 -61.8831
rfingers 7.12502
rthumb 1.74981 91.8557
lclavicle -1.63997e-015 -1.39149e-014
lhumerus -25.3684 -5.55951 69.2619
lradius 44.4772
lwrist 3.98271
lhand -37.7166 -44.9644
lfingers 7.12502
lthumb -10.7659 -15.2602
rfemur -59.5434 7.92597 9.70366
rtibia 80.3346
rfoot -29.5574 -22.1836
rtoes -23.331
lfemur -48.0178 17.4379 -13.1725
ltibia 76.6292
lfoot -32.7707 10.787
ltoes -24.969
